<svg width="16" height="16" viewBox="0 0 16 16" fill="none" xmlns="http://www.w3.org/2000/svg">
<g clip-path="url(#clip0_13_664)">
<path d="M6.66669 7.33331V11.3333" stroke="#0A0A0A" stroke-width="1.33333" stroke-linecap="round" stroke-linejoin="round"/>
<path d="M9.33331 7.33331V11.3333" stroke="#0A0A0A" stroke-width="1.33333" stroke-linecap="round" stroke-linejoin="round"/>
<path d="M12.6666 4V13.3333C12.6666 13.687 12.5262 14.0261 12.2761 14.2761C12.0261 14.5262 11.6869 14.6667 11.3333 14.6667H4.66665C4.31302 14.6667 3.97389 14.5262 3.72384 14.2761C3.47379 14.0261 3.33331 13.687 3.33331 13.3333V4" stroke="#0A0A0A" stroke-width="1.33333" stroke-linecap="round" stroke-linejoin="round"/>
<path d="M2 4H14" stroke="#0A0A0A" stroke-width="1.33333" stroke-linecap="round" stroke-linejoin="round"/>
<path d="M5.33331 3.99998V2.66665C5.33331 2.31302 5.47379 1.97389 5.72384 1.72384C5.97389 1.47379 6.31302 1.33331 6.66665 1.33331H9.33331C9.68694 1.33331 10.0261 1.47379 10.2761 1.72384C10.5262 1.97389 10.6666 2.31302 10.6666 2.66665V3.99998" stroke="#0A0A0A" stroke-width="1.33333" stroke-linecap="round" stroke-linejoin="round"/>
</g>
<defs>
<clipPath id="clip0_13_664">
<rect width="16" height="16" fill="white"/>
</clipPath>
</defs>
</svg>
