<svg width="16" height="16" viewBox="0 0 16 16" fill="none" xmlns="http://www.w3.org/2000/svg">
<path d="M8.00001 14.6666C6.2319 14.6666 4.53621 13.9643 3.28596 12.714C2.03572 11.4638 1.33334 9.76809 1.33334 7.99998C1.33334 6.23187 2.03572 4.53618 3.28596 3.28593C4.53621 2.03569 6.2319 1.33331 8.00001 1.33331C9.76812 1.33331 11.4638 1.96545 12.7141 3.09067C13.9643 4.21589 14.6667 5.74201 14.6667 7.33331C14.6667 8.21737 14.3155 9.06521 13.6904 9.69034C13.0652 10.3155 12.2174 10.6666 11.3333 10.6666H9.83334C9.61668 10.6666 9.4043 10.727 9.21999 10.8409C9.03568 10.9548 8.88674 11.1178 8.78984 11.3116C8.69295 11.5054 8.65193 11.7223 8.67139 11.9381C8.69085 12.1539 8.77001 12.36 8.90001 12.5333L9.10001 12.8C9.23001 12.9733 9.30917 13.1794 9.32863 13.3952C9.34809 13.611 9.30707 13.8279 9.21017 14.0217C9.11328 14.2155 8.96433 14.3785 8.78003 14.4924C8.59572 14.6063 8.38334 14.6666 8.16668 14.6666H8.00001Z" stroke="#E60076" stroke-width="1.33333" stroke-linecap="round" stroke-linejoin="round"/>
<path d="M8.99999 4.66667C9.18408 4.66667 9.33332 4.51743 9.33332 4.33333C9.33332 4.14924 9.18408 4 8.99999 4C8.81589 4 8.66666 4.14924 8.66666 4.33333C8.66666 4.51743 8.81589 4.66667 8.99999 4.66667Z" fill="#E60076" stroke="#E60076" stroke-width="1.33333" stroke-linecap="round" stroke-linejoin="round"/>
<path d="M11.6667 7.33335C11.8508 7.33335 12 7.18412 12 7.00002C12 6.81593 11.8508 6.66669 11.6667 6.66669C11.4826 6.66669 11.3333 6.81593 11.3333 7.00002C11.3333 7.18412 11.4826 7.33335 11.6667 7.33335Z" fill="#E60076" stroke="#E60076" stroke-width="1.33333" stroke-linecap="round" stroke-linejoin="round"/>
<path d="M4.33333 8.66667C4.51743 8.66667 4.66667 8.51743 4.66667 8.33333C4.66667 8.14924 4.51743 8 4.33333 8C4.14924 8 4 8.14924 4 8.33333C4 8.51743 4.14924 8.66667 4.33333 8.66667Z" fill="#E60076" stroke="#E60076" stroke-width="1.33333" stroke-linecap="round" stroke-linejoin="round"/>
<path d="M5.66668 5.33335C5.85077 5.33335 6.00001 5.18412 6.00001 5.00002C6.00001 4.81593 5.85077 4.66669 5.66668 4.66669C5.48258 4.66669 5.33334 4.81593 5.33334 5.00002C5.33334 5.18412 5.48258 5.33335 5.66668 5.33335Z" fill="#E60076" stroke="#E60076" stroke-width="1.33333" stroke-linecap="round" stroke-linejoin="round"/>
</svg>
