<svg width="20" height="20" viewBox="0 0 20 20" fill="none" xmlns="http://www.w3.org/2000/svg">
<path d="M15 4.16667L12.9883 2.155C12.6758 1.84242 12.252 1.66676 11.81 1.66667H5C4.55797 1.66667 4.13405 1.84226 3.82149 2.15482C3.50893 2.46738 3.33333 2.89131 3.33333 3.33333V16.6667C3.33333 17.1087 3.50893 17.5326 3.82149 17.8452C4.13405 18.1577 4.55797 18.3333 5 18.3333H15C15.442 18.3333 15.8659 18.1577 16.1785 17.8452C16.4911 17.5326 16.6667 17.1087 16.6667 16.6667" stroke="white" stroke-width="1.66667" stroke-linecap="round" stroke-linejoin="round"/>
<path d="M17.815 10.5217C18.147 10.1897 18.3335 9.73947 18.3335 9.27C18.3335 8.80054 18.147 8.3503 17.815 8.01834C17.483 7.68637 17.0328 7.49988 16.5633 7.49988C16.0939 7.49988 15.6436 7.68637 15.3117 8.01834L11.97 11.3617C11.7719 11.5597 11.6269 11.8044 11.5483 12.0733L10.8508 14.465C10.8299 14.5367 10.8287 14.6127 10.8472 14.6851C10.8657 14.7574 10.9034 14.8235 10.9562 14.8763C11.009 14.9291 11.0751 14.9668 11.1474 14.9853C11.2198 15.0038 11.2958 15.0026 11.3675 14.9817L13.7592 14.2842C14.0281 14.2057 14.2728 14.0606 14.4708 13.8625L17.815 10.5217Z" stroke="white" stroke-width="1.66667" stroke-linecap="round" stroke-linejoin="round"/>
<path d="M6.66667 15H7.5" stroke="white" stroke-width="1.66667" stroke-linecap="round" stroke-linejoin="round"/>
</svg>
