<svg width="20" height="20" viewBox="0 0 20 20" fill="none" xmlns="http://www.w3.org/2000/svg">
<path d="M13.0892 17.7442C12.9329 17.9004 12.721 17.9881 12.5 17.9881C12.279 17.9881 12.0671 17.9004 11.9108 17.7442L10.5892 16.4225C10.4329 16.2662 10.3452 16.0543 10.3452 15.8333C10.3452 15.6124 10.4329 15.4004 10.5892 15.2442L15.2442 10.5892C15.4004 10.4329 15.6124 10.3452 15.8333 10.3452C16.0543 10.3452 16.2662 10.4329 16.4225 10.5892L17.7442 11.9108C17.9004 12.0671 17.9882 12.279 17.9882 12.5C17.9882 12.721 17.9004 12.9329 17.7442 13.0892L13.0892 17.7442Z" stroke="#9810FA" stroke-width="1.66667" stroke-linecap="round" stroke-linejoin="round"/>
<path d="M15 10.8333L13.8542 5.10499C13.823 4.94914 13.7479 4.80546 13.6378 4.69088C13.5276 4.5763 13.387 4.49561 13.2325 4.45833L2.69583 1.68999C2.55702 1.65643 2.41191 1.65911 2.27443 1.69776C2.13695 1.73642 2.01172 1.80975 1.91073 1.91073C1.80975 2.01172 1.73642 2.13695 1.69776 2.27443C1.65911 2.41191 1.65643 2.55702 1.68999 2.69583L4.45833 13.2325C4.49561 13.387 4.5763 13.5276 4.69088 13.6378C4.80546 13.7479 4.94914 13.823 5.10499 13.8542L10.8333 15" stroke="#9810FA" stroke-width="1.66667" stroke-linecap="round" stroke-linejoin="round"/>
<path d="M1.91666 1.91667L7.98832 7.98834" stroke="#9810FA" stroke-width="1.66667" stroke-linecap="round" stroke-linejoin="round"/>
<path d="M9.16667 10.8333C10.0871 10.8333 10.8333 10.0871 10.8333 9.16667C10.8333 8.24619 10.0871 7.5 9.16667 7.5C8.24619 7.5 7.5 8.24619 7.5 9.16667C7.5 10.0871 8.24619 10.8333 9.16667 10.8333Z" stroke="#9810FA" stroke-width="1.66667" stroke-linecap="round" stroke-linejoin="round"/>
</svg>
