<svg width="16" height="16" viewBox="0 0 16 16" fill="none" xmlns="http://www.w3.org/2000/svg">
<mask id="path-1-inside-1_19_3604" fill="white">
<path d="M0 4C0 1.79086 1.79086 0 4 0H12C14.2091 0 16 1.79086 16 4V12C16 14.2091 14.2091 16 12 16H4C1.79086 16 0 14.2091 0 12V4Z"/>
</mask>
<path d="M4 0V1.6H12V0V-1.6H4V0ZM16 4H14.4V12H16H17.6V4H16ZM12 16V14.4H4V16V17.6H12V16ZM0 12H1.6V4H0H-1.6V12H0ZM4 16V14.4C2.67452 14.4 1.6 13.3255 1.6 12H0H-1.6C-1.6 15.0928 0.907205 17.6 4 17.6V16ZM16 12H14.4C14.4 13.3255 13.3255 14.4 12 14.4V16V17.6C15.0928 17.6 17.6 15.0928 17.6 12H16ZM12 0V1.6C13.3255 1.6 14.4 2.67452 14.4 4H16H17.6C17.6 0.907205 15.0928 -1.6 12 -1.6V0ZM4 0V-1.6C0.907205 -1.6 -1.6 0.907205 -1.6 4H0H1.6C1.6 2.67452 2.67452 1.6 4 1.6V0Z" fill="#F54900" mask="url(#path-1-inside-1_19_3604)"/>
</svg>
