<svg width="32" height="32" viewBox="0 0 32 32" fill="none" xmlns="http://www.w3.org/2000/svg">
<mask id="path-1-inside-1_61_190" fill="white">
<path d="M0 16C0 7.16344 7.16344 0 16 0C24.8366 0 32 7.16344 32 16C32 24.8366 24.8366 32 16 32C7.16344 32 0 24.8366 0 16Z"/>
</mask>
<path d="M16 32V30.4C8.0471 30.4 1.6 23.9529 1.6 16H0H-1.6C-1.6 25.7202 6.27979 33.6 16 33.6V32ZM32 16H30.4C30.4 23.9529 23.9529 30.4 16 30.4V32V33.6C25.7202 33.6 33.6 25.7202 33.6 16H32ZM16 0V1.6C23.9529 1.6 30.4 8.0471 30.4 16H32H33.6C33.6 6.27979 25.7202 -1.6 16 -1.6V0ZM16 0V-1.6C6.27979 -1.6 -1.6 6.27979 -1.6 16H0H1.6C1.6 8.0471 8.0471 1.6 16 1.6V0Z" fill="#155DFC" mask="url(#path-1-inside-1_61_190)"/>
</svg>
