<svg width="20" height="20" viewBox="0 0 20 20" fill="none" xmlns="http://www.w3.org/2000/svg">
<path d="M10.0001 18.3333C7.78994 18.3333 5.67033 17.4554 4.10752 15.8926C2.54472 14.3298 1.66675 12.2101 1.66675 10C1.66675 7.78987 2.54472 5.67025 4.10752 4.10745C5.67033 2.54465 7.78994 1.66667 10.0001 1.66667C12.2102 1.66667 14.3298 2.45685 15.8926 3.86337C17.4554 5.26989 18.3334 7.17755 18.3334 9.16667C18.3334 10.2717 17.8944 11.3315 17.113 12.1129C16.3316 12.8944 15.2718 13.3333 14.1667 13.3333H12.2917C12.0209 13.3333 11.7554 13.4088 11.5251 13.5511C11.2947 13.6935 11.1085 13.8972 10.9874 14.1395C10.8663 14.3817 10.815 14.6529 10.8393 14.9226C10.8636 15.1924 10.9626 15.45 11.1251 15.6667L11.3751 16C11.5376 16.2167 11.6365 16.4743 11.6609 16.744C11.6852 17.0138 11.6339 17.285 11.5128 17.5272C11.3917 17.7694 11.2055 17.9732 10.9751 18.1155C10.7447 18.2579 10.4792 18.3333 10.2084 18.3333H10.0001Z" stroke="#9810FA" stroke-width="1.66667" stroke-linecap="round" stroke-linejoin="round"/>
<path d="M11.2499 5.83333C11.48 5.83333 11.6666 5.64679 11.6666 5.41667C11.6666 5.18655 11.48 5 11.2499 5C11.0198 5 10.8333 5.18655 10.8333 5.41667C10.8333 5.64679 11.0198 5.83333 11.2499 5.83333Z" fill="#9810FA" stroke="#9810FA" stroke-width="1.66667" stroke-linecap="round" stroke-linejoin="round"/>
<path d="M14.5834 9.16666C14.8135 9.16666 15.0001 8.98011 15.0001 8.74999C15.0001 8.51988 14.8135 8.33333 14.5834 8.33333C14.3533 8.33333 14.1667 8.51988 14.1667 8.74999C14.1667 8.98011 14.3533 9.16666 14.5834 9.16666Z" fill="#9810FA" stroke="#9810FA" stroke-width="1.66667" stroke-linecap="round" stroke-linejoin="round"/>
<path d="M5.41667 10.8333C5.64679 10.8333 5.83333 10.6468 5.83333 10.4167C5.83333 10.1865 5.64679 10 5.41667 10C5.18655 10 5 10.1865 5 10.4167C5 10.6468 5.18655 10.8333 5.41667 10.8333Z" fill="#9810FA" stroke="#9810FA" stroke-width="1.66667" stroke-linecap="round" stroke-linejoin="round"/>
<path d="M7.08341 6.66666C7.31353 6.66666 7.50008 6.48011 7.50008 6.24999C7.50008 6.01988 7.31353 5.83333 7.08341 5.83333C6.8533 5.83333 6.66675 6.01988 6.66675 6.24999C6.66675 6.48011 6.8533 6.66666 7.08341 6.66666Z" fill="#9810FA" stroke="#9810FA" stroke-width="1.66667" stroke-linecap="round" stroke-linejoin="round"/>
</svg>
