<svg width="16" height="16" viewBox="0 0 16 16" fill="none" xmlns="http://www.w3.org/2000/svg">
<g clip-path="url(#clip0_19_3734)">
<path d="M14.1161 4.54138C14.4686 4.189 14.6666 3.71103 14.6667 3.21262C14.6668 2.71421 14.4688 2.23619 14.1165 1.88372C13.7641 1.53124 13.2861 1.33319 12.7877 1.33313C12.2893 1.33307 11.8113 1.531 11.4588 1.88338L2.56145 10.7827C2.40667 10.9371 2.29219 11.1271 2.22812 11.3361L1.34745 14.2374C1.33022 14.295 1.32892 14.3563 1.34369 14.4146C1.35845 14.473 1.38873 14.5262 1.43132 14.5687C1.4739 14.6112 1.5272 14.6414 1.58556 14.6561C1.64392 14.6708 1.70516 14.6694 1.76279 14.6521L4.66479 13.7721C4.87357 13.7086 5.06357 13.5948 5.21812 13.4407L14.1161 4.54138Z" stroke="#3FD100" stroke-width="1.33333" stroke-linecap="round" stroke-linejoin="round"/>
</g>
<defs>
<clipPath id="clip0_19_3734">
<rect width="16" height="16" fill="white"/>
</clipPath>
</defs>
</svg>
