<svg width="40" height="28" viewBox="0 0 40 28" fill="none" xmlns="http://www.w3.org/2000/svg">
<mask id="path-1-inside-1_61_200" fill="white">
<path d="M0 14C0 6.26801 6.26801 0 14 0H26C33.732 0 40 6.26801 40 14C40 21.732 33.732 28 26 28H14C6.26801 28 0 21.732 0 14Z"/>
</mask>
<path d="M14 0V1.6H26V0V-1.6H14V0ZM26 28V26.4H14V28V29.6H26V28ZM14 28V26.4C7.15167 26.4 1.6 20.8483 1.6 14H0H-1.6C-1.6 22.6156 5.38436 29.6 14 29.6V28ZM40 14H38.4C38.4 20.8483 32.8483 26.4 26 26.4V28V29.6C34.6156 29.6 41.6 22.6156 41.6 14H40ZM26 0V1.6C32.8483 1.6 38.4 7.15167 38.4 14H40H41.6C41.6 5.38436 34.6156 -1.6 26 -1.6V0ZM14 0V-1.6C5.38436 -1.6 -1.6 5.38436 -1.6 14H0H1.6C1.6 7.15167 7.15167 1.6 14 1.6V0Z" fill="#99A1AF" mask="url(#path-1-inside-1_61_200)"/>
</svg>
