<svg width="40" height="32" viewBox="0 0 40 32" fill="none" xmlns="http://www.w3.org/2000/svg">
<mask id="path-1-inside-1_61_195" fill="white">
<path d="M0 4C0 1.79086 1.79086 0 4 0H36C38.2091 0 40 1.79086 40 4V28C40 30.2091 38.2091 32 36 32H4C1.79086 32 0 30.2091 0 28V4Z"/>
</mask>
<path d="M4 0V1.6H36V0V-1.6H4V0ZM40 4H38.4V28H40H41.6V4H40ZM36 32V30.4H4V32V33.6H36V32ZM0 28H1.6V4H0H-1.6V28H0ZM4 32V30.4C2.67452 30.4 1.6 29.3255 1.6 28H0H-1.6C-1.6 31.0928 0.907207 33.6 4 33.6V32ZM40 28H38.4C38.4 29.3255 37.3255 30.4 36 30.4V32V33.6C39.0928 33.6 41.6 31.0928 41.6 28H40ZM36 0V1.6C37.3255 1.6 38.4 2.67452 38.4 4H40H41.6C41.6 0.907205 39.0928 -1.6 36 -1.6V0ZM4 0V-1.6C0.907206 -1.6 -1.6 0.907205 -1.6 4H0H1.6C1.6 2.67452 2.67452 1.6 4 1.6V0Z" fill="#99A1AF" mask="url(#path-1-inside-1_61_195)"/>
</svg>
