<svg width="20" height="20" viewBox="0 0 20 20" fill="none" xmlns="http://www.w3.org/2000/svg">
<path d="M6.91664 8.33334C6.80921 8.3392 6.70226 8.31524 6.6076 8.26411C6.51294 8.21298 6.43427 8.13666 6.38028 8.04361C6.32629 7.95055 6.29909 7.84437 6.30168 7.73682C6.30428 7.62926 6.33656 7.52452 6.39497 7.43417L9.49997 2.50001C9.54876 2.41215 9.61942 2.33838 9.70511 2.28586C9.79079 2.23335 9.88859 2.20386 9.98902 2.20025C10.0895 2.19665 10.1891 2.21905 10.2783 2.26529C10.3676 2.31153 10.4433 2.38004 10.4983 2.46417L13.5833 7.41667C13.6441 7.504 13.6799 7.6063 13.6867 7.71249C13.6936 7.81868 13.6712 7.92472 13.6221 8.01913C13.573 8.11354 13.4991 8.19273 13.4082 8.24811C13.3173 8.30349 13.213 8.33297 13.1066 8.33334H6.91664Z" stroke="#00A63E" stroke-width="1.66667" stroke-linecap="round" stroke-linejoin="round"/>
<path d="M7.5 11.6667H3.33333C2.8731 11.6667 2.5 12.0398 2.5 12.5V16.6667C2.5 17.1269 2.8731 17.5 3.33333 17.5H7.5C7.96024 17.5 8.33333 17.1269 8.33333 16.6667V12.5C8.33333 12.0398 7.96024 11.6667 7.5 11.6667Z" stroke="#00A63E" stroke-width="1.66667" stroke-linecap="round" stroke-linejoin="round"/>
<path d="M14.5834 17.5C16.1942 17.5 17.5001 16.1942 17.5001 14.5833C17.5001 12.9725 16.1942 11.6667 14.5834 11.6667C12.9726 11.6667 11.6667 12.9725 11.6667 14.5833C11.6667 16.1942 12.9726 17.5 14.5834 17.5Z" stroke="#00A63E" stroke-width="1.66667" stroke-linecap="round" stroke-linejoin="round"/>
</svg>
