<svg width="16" height="16" viewBox="0 0 16 16" fill="none" xmlns="http://www.w3.org/2000/svg">
<path d="M5.53311 6.66669C5.44717 6.67138 5.36161 6.65221 5.28589 6.61131C5.21016 6.5704 5.14722 6.50935 5.10403 6.4349C5.06084 6.36046 5.03908 6.27552 5.04115 6.18947C5.04322 6.10343 5.06905 6.01964 5.11578 5.94736L7.59978 2.00002C7.63881 1.92974 7.69534 1.87072 7.76389 1.82871C7.83244 1.7867 7.91068 1.7631 7.99102 1.76022C8.07137 1.75733 8.1511 1.77526 8.22248 1.81225C8.29386 1.84924 8.35448 1.90405 8.39845 1.97136L10.8664 5.93336C10.9151 6.00322 10.9437 6.08506 10.9492 6.17001C10.9547 6.25496 10.9368 6.3398 10.8975 6.41532C10.8582 6.49085 10.7991 6.5542 10.7264 6.59851C10.6537 6.64281 10.5702 6.66639 10.4851 6.66669H5.53311Z" stroke="#155DFC" stroke-width="1.33333" stroke-linecap="round" stroke-linejoin="round"/>
<path d="M6 9.33334H2.66667C2.29848 9.33334 2 9.63182 2 10V13.3333C2 13.7015 2.29848 14 2.66667 14H6C6.36819 14 6.66667 13.7015 6.66667 13.3333V10C6.66667 9.63182 6.36819 9.33334 6 9.33334Z" stroke="#155DFC" stroke-width="1.33333" stroke-linecap="round" stroke-linejoin="round"/>
<path d="M11.6668 14C12.9555 14 14.0002 12.9553 14.0002 11.6667C14.0002 10.378 12.9555 9.33334 11.6668 9.33334C10.3782 9.33334 9.3335 10.378 9.3335 11.6667C9.3335 12.9553 10.3782 14 11.6668 14Z" stroke="#155DFC" stroke-width="1.33333" stroke-linecap="round" stroke-linejoin="round"/>
</svg>
